<svg width="320" height="120" viewBox="0 0 320 120" fill="none" xmlns="http://www.w3.org/2000/svg">
  <defs>
    <linearGradient id="plusStroke" x1="22" y1="24" x2="98" y2="100" gradientUnits="userSpaceOnUse">
      <stop stop-color="#8EFBFF"/>
      <stop offset="0.52" stop-color="#53F3D7"/>
      <stop offset="1" stop-color="#4CB8FF"/>
    </linearGradient>
    <linearGradient id="plusText" x1="118" y1="26" x2="260" y2="92" gradientUnits="userSpaceOnUse">
      <stop stop-color="#CFFBFF"/>
      <stop offset="0.55" stop-color="#7EFFE5"/>
      <stop offset="1" stop-color="#8ACFFF"/>
    </linearGradient>
    <radialGradient id="plusGlow" cx="0" cy="0" r="1" gradientUnits="userSpaceOnUse" gradientTransform="translate(68 60) rotate(90) scale(42)">
      <stop stop-color="#71FFF2" stop-opacity="0.34"/>
      <stop offset="1" stop-color="#71FFF2" stop-opacity="0"/>
    </radialGradient>
    <filter id="plusBlur" x="-20%" y="-20%" width="140%" height="140%">
      <feGaussianBlur stdDeviation="4"/>
    </filter>
  </defs>
  <circle cx="68" cy="60" r="42" fill="url(#plusGlow)"/>
  <g>
    <rect x="28" y="20" width="80" height="80" rx="24" fill="#071A26" fill-opacity="0.18"/>
    <rect x="28.75" y="20.75" width="78.5" height="78.5" rx="23.25" stroke="url(#plusStroke)" stroke-opacity="0.46" stroke-width="1.5"/>
    <path d="M68 30L88 40.5V63.5C88 76.3 79.5 87.1 68 92C56.5 87.1 48 76.3 48 63.5V40.5L68 30Z" fill="#0A2130" stroke="url(#plusStroke)" stroke-opacity="0.74" stroke-width="2.4"/>
    <path d="M64 46.5H72V56H81.5V64H72V73.5H64V64H54.5V56H64V46.5Z" fill="url(#plusText)"/>
    <path d="M64 46.5H72V56H81.5V64H72V73.5H64V64H54.5V56H64V46.5Z" fill="url(#plusText)" filter="url(#plusBlur)" opacity="0.75"/>
  </g>
  <g>
    <text x="126" y="44" font-family="Arial, Helvetica, sans-serif" font-size="14" font-weight="900" letter-spacing="4.2" fill="#9FEFFF">NEON</text>
    <text x="126" y="80" font-family="Arial, Helvetica, sans-serif" font-size="36" font-weight="900" letter-spacing="0.8" fill="url(#plusText)">PLUS</text>
    <rect x="126" y="88" width="124" height="2" rx="1" fill="url(#plusStroke)" fill-opacity="0.7"/>
    <text x="126" y="106" font-family="Arial, Helvetica, sans-serif" font-size="12.5" font-weight="700" letter-spacing="0.4" fill="#D7F9FF" fill-opacity="0.82">boosted visuals · bigger limits</text>
  </g>
</svg>
