<svg width="320" height="120" viewBox="0 0 320 120" fill="none" xmlns="http://www.w3.org/2000/svg">
  <defs>
    <linearGradient id="proStroke" x1="24" y1="22" x2="100" y2="98" gradientUnits="userSpaceOnUse">
      <stop stop-color="#FFF0A6"/>
      <stop offset="0.5" stop-color="#FFC45B"/>
      <stop offset="1" stop-color="#FF8A59"/>
    </linearGradient>
    <linearGradient id="proText" x1="122" y1="26" x2="266" y2="92" gradientUnits="userSpaceOnUse">
      <stop stop-color="#FFF1BB"/>
      <stop offset="0.56" stop-color="#FFD36F"/>
      <stop offset="1" stop-color="#FF9D63"/>
    </linearGradient>
    <radialGradient id="proGlow" cx="0" cy="0" r="1" gradientUnits="userSpaceOnUse" gradientTransform="translate(68 60) rotate(90) scale(42)">
      <stop stop-color="#FFD67C" stop-opacity="0.34"/>
      <stop offset="1" stop-color="#FFD67C" stop-opacity="0"/>
    </radialGradient>
    <filter id="proBlur" x="-20%" y="-20%" width="140%" height="140%">
      <feGaussianBlur stdDeviation="4"/>
    </filter>
  </defs>
  <circle cx="68" cy="60" r="42" fill="url(#proGlow)"/>
  <g>
    <rect x="28" y="20" width="80" height="80" rx="24" fill="#22160A" fill-opacity="0.16"/>
    <rect x="28.75" y="20.75" width="78.5" height="78.5" rx="23.25" stroke="url(#proStroke)" stroke-opacity="0.50" stroke-width="1.5"/>
    <path d="M68 31L87 40.5V61.5C87 75 79.2 86.6 68 92C56.8 86.6 49 75 49 61.5V40.5L68 31Z" fill="#261909" stroke="url(#proStroke)" stroke-opacity="0.78" stroke-width="2.4"/>
    <path d="M56 44.5L62 37L68 42L74 37L80 44.5V48H56V44.5Z" fill="url(#proText)"/>
    <path d="M68 50.5C74.7 50.5 80.5 56.1 80.5 62.9V67.5H55.5V62.9C55.5 56.1 61.3 50.5 68 50.5Z" fill="#2A1B0B" stroke="url(#proStroke)" stroke-opacity="0.76" stroke-width="2"/>
    <path d="M56 44.5L62 37L68 42L74 37L80 44.5V48H56V44.5Z" fill="url(#proText)" filter="url(#proBlur)" opacity="0.75"/>
  </g>
  <g>
    <text x="126" y="44" font-family="Arial, Helvetica, sans-serif" font-size="14" font-weight="900" letter-spacing="4.2" fill="#FFEAB1">NEON</text>
    <text x="126" y="80" font-family="Arial, Helvetica, sans-serif" font-size="36" font-weight="900" letter-spacing="0.8" fill="url(#proText)">PRO</text>
    <rect x="126" y="88" width="118" height="2" rx="1" fill="url(#proStroke)" fill-opacity="0.72"/>
    <text x="126" y="106" font-family="Arial, Helvetica, sans-serif" font-size="12.5" font-weight="700" letter-spacing="0.4" fill="#FFF2D6" fill-opacity="0.82">priority tier · all unlocked</text>
  </g>
</svg>
