<svg width="320" height="120" viewBox="0 0 320 120" fill="none" xmlns="http://www.w3.org/2000/svg">
  <defs>
    <linearGradient id="freeTile" x1="28" y1="20" x2="108" y2="100" gradientUnits="userSpaceOnUse">
      <stop stop-color="#0D2F55"/>
      <stop offset="0.55" stop-color="#0A2340"/>
      <stop offset="1" stop-color="#081A31"/>
    </linearGradient>
    <linearGradient id="freeTileStroke" x1="26" y1="18" x2="110" y2="102" gradientUnits="userSpaceOnUse">
      <stop stop-color="#A9EEFF"/>
      <stop offset="0.5" stop-color="#54C8FF"/>
      <stop offset="1" stop-color="#7D9DFF"/>
    </linearGradient>
    <linearGradient id="freeRing" x1="46" y1="38" x2="86" y2="82" gradientUnits="userSpaceOnUse">
      <stop stop-color="#EAFDFF"/>
      <stop offset="0.6" stop-color="#8DE8FF"/>
      <stop offset="1" stop-color="#74B6FF"/>
    </linearGradient>
    <linearGradient id="freeText" x1="126" y1="26" x2="270" y2="98" gradientUnits="userSpaceOnUse">
      <stop stop-color="#F8FEFF"/>
      <stop offset="0.46" stop-color="#D7F7FF"/>
      <stop offset="1" stop-color="#8FCBFF"/>
    </linearGradient>
    <linearGradient id="freeMetal" x1="126" y1="44" x2="126" y2="84" gradientUnits="userSpaceOnUse">
      <stop stop-color="#FFFFFF"/>
      <stop offset="0.45" stop-color="#E8F7FF"/>
      <stop offset="1" stop-color="#B4D8FF"/>
    </linearGradient>
    <radialGradient id="freeGlow" cx="0" cy="0" r="1" gradientUnits="userSpaceOnUse" gradientTransform="translate(66 60) rotate(90) scale(44)">
      <stop stop-color="#7DE8FF" stop-opacity="0.34"/>
      <stop offset="1" stop-color="#7DE8FF" stop-opacity="0"/>
    </radialGradient>
    <filter id="freeShadow" x="20" y="14" width="94" height="94" filterUnits="userSpaceOnUse" color-interpolation-filters="sRGB">
      <feDropShadow dx="0" dy="6" stdDeviation="6" flood-color="#041321" flood-opacity="0.34"/>
    </filter>
    <filter id="freeSoftGlow" x="34" y="26" width="64" height="64" filterUnits="userSpaceOnUse" color-interpolation-filters="sRGB">
      <feGaussianBlur stdDeviation="3.6"/>
    </filter>
    <filter id="freeTextShadow" x="116" y="24" width="170" height="70" filterUnits="userSpaceOnUse" color-interpolation-filters="sRGB">
      <feDropShadow dx="0" dy="5" stdDeviation="5" flood-color="#0E355C" flood-opacity="0.30"/>
    </filter>
  </defs>

  <circle cx="66" cy="60" r="44" fill="url(#freeGlow)"/>
  <circle cx="55" cy="44" r="1.8" fill="#D8F9FF" fill-opacity="0.95"/>
  <circle cx="84" cy="38" r="1.5" fill="#D8F9FF" fill-opacity="0.82"/>
  <circle cx="90" cy="75" r="1.6" fill="#D8F9FF" fill-opacity="0.68"/>
  <path d="M93 31L94.2 34L97.2 35.2L94.2 36.4L93 39.4L91.8 36.4L88.8 35.2L91.8 34L93 31Z" fill="#E6FCFF" fill-opacity="0.88"/>

  <g filter="url(#freeShadow)">
    <rect x="28" y="20" width="80" height="80" rx="24" fill="url(#freeTile)"/>
    <rect x="28.85" y="20.85" width="78.3" height="78.3" rx="23.15" stroke="url(#freeTileStroke)" stroke-opacity="0.78" stroke-width="1.7"/>
    <rect x="33" y="25" width="70" height="70" rx="20" fill="url(#freeTile)" fill-opacity="0.55" stroke="#C7F6FF" stroke-opacity="0.12"/>
    <path d="M40 31C48 24 61 22 76 23.5C86 24.4 95 27.5 100 32" stroke="#EAFEFF" stroke-opacity="0.22" stroke-width="3" stroke-linecap="round"/>

    <circle cx="68" cy="60" r="23.5" fill="#071629" stroke="url(#freeRing)" stroke-width="2.8"/>
    <circle cx="68" cy="60" r="18.6" fill="#0C2D52" fill-opacity="0.78" stroke="#D9FBFF" stroke-opacity="0.14"/>
    <circle cx="68" cy="60" r="16" fill="#94EBFF" fill-opacity="0.18" filter="url(#freeSoftGlow)"/>

    <path d="M68 45.2L72.2 54.1L82 55.2L74.7 61.7L76.8 71.1L68 66.1L59.2 71.1L61.3 61.7L54 55.2L63.8 54.1L68 45.2Z" fill="url(#freeRing)"/>
    <path d="M68 45.2L72.2 54.1L82 55.2L74.7 61.7L76.8 71.1L68 66.1L59.2 71.1L61.3 61.7L54 55.2L63.8 54.1L68 45.2Z" fill="#F6FEFF" fill-opacity="0.55"/>
  </g>

  <g filter="url(#freeTextShadow)">
    <text x="126" y="43" font-family="Arial, Helvetica, sans-serif" font-size="14" font-weight="900" letter-spacing="4.2" fill="#C5F2FF">NEON</text>
    <text x="126" y="81" font-family="Arial, Helvetica, sans-serif" font-size="37" font-weight="900" letter-spacing="0.5" fill="url(#freeMetal)" stroke="#6CB6FF" stroke-opacity="0.46" stroke-width="1">FREE</text>
  </g>

  <rect x="126" y="88" width="102" height="2.5" rx="1.25" fill="url(#freeTileStroke)" fill-opacity="0.8"/>
  <text x="126" y="106" font-family="Arial, Helvetica, sans-serif" font-size="12.5" font-weight="700" letter-spacing="0.8" fill="#E8F8FF" fill-opacity="0.86">basic access</text>
</svg>
